# xmcd
#
# Track frame offsets:
# 150
# 13352
# 29609
# 42667
# 59577
# 73794
# 90423
# 106219
# 120659
# 135077
# 149852
# 161506
# 177093
# 194311
# 208830
# 222645
# 238526
# 253493
# 267096
# 280010
# 292786
#
# Disc length: 4097 seconds
#
#
# Revision: 0
# Processed by: cddbd v1.5.2PL0 Copyright (c) Steve Scherf et al.
# Submitted via: FreeRIP 2.945 
#
DISCID=4b0fff15
DTITLE=FABIO E FERNANDO  - ACUSTICO
DYEAR=2006
DGENRE=SERTANEJO
TTITLE0=FABIO E FERNANDO - PRA TE AMAR MAIS UMA VEZ
TTITLE1=FABIO E FERNANDO - PRECISO TE ENCONTRAR - AOS TRANCOS E BARRANCOS
TTITLE2=FABIO E FERNANDO - CONTRADIÇÕES
TTITLE3=FABIO E FERNANDO - ESSA TAL LIBERDADE
TTITLE4=FABIO E FERNANDO - BAFAFÁ
TTITLE5=FABIO E FERNANDO - BRIGAR COM ELE
TTITLE6=FABIO E FERNANDO - CHUVA NO OLHAR
TTITLE7=FABIO E FERNANDO - MENININHA MEU AMOR
TTITLE8=FABIO E FERNANDO - INDECISÃO
TTITLE9=FABIO E FERNANDO - SÓ HOJE
TTITLE10=FABIO E FERNANDO - O POVO FALA COM RAZAO
TTITLE11=FABIO E FERNANDO - INDIFERENÇA
TTITLE12=FABIO E FERNANDO - CORAÇAO PARTIDO (CORAZON PARTIO)
TTITLE13=FABIO E FERNANDO - PAIXAO DESENFREADA
TTITLE14=FABIO E FERNANDO - MOLHADO DE AMOR
TTITLE15=FABIO E FERNANDO - MEU DESTINO
TTITLE16=FABIO E FERNANDO - ABRA SEUS OLHOS
TTITLE17=FABIO E FERNANDO - ACORDA CORAÇAO
TTITLE18=FABIO E FERNANDO - FREIO DE MAO PUXADO
TTITLE19=FABIO E FERNANDO - CASTIGA-ME
TTITLE20=FABIO E FERNANDO - INESPLICAVEL FORÇA DO AMOR
EXTD=AURORA FM - NOVA AURORA PARANA
EXTT0=
EXTT1=
EXTT2=
EXTT3=
EXTT4=
EXTT5=
EXTT6=
EXTT7=
EXTT8=
EXTT9=
EXTT10=
EXTT11=
EXTT12=
EXTT13=
EXTT14=
EXTT15=
EXTT16=
EXTT17=
EXTT18=
EXTT19=
EXTT20=
PLAYORDER=
